<svg 
          width="19.86666488647461" 
          height="19.450000762939453" fill="none" 
          xmlns="http://www.w3.org/2000/svg">
          <path d="M 19.86666488647461 17.56999969482422 L 19.639998132590485 17.37000020345052 C 18.996952509914998 16.797066688537598 18.434104295868888 16.140035152435303 17.96666602533663 15.416666666666666 C 17.456147705821696 14.418365081151325 17.150162453475584 13.328152100245157 17.066665828627983 12.21000035603841 L 17.066665828627983 8.916666666666666 C 17.063957991651797 8.516633828481037 17.02828175611864 8.117504795392355 16.95999927051377 7.723333358764648 C 15.830741902224863 7.491225183010101 14.816387261338079 6.87601351737976 14.08866792149709 5.981854120890299 C 13.3609485816561 5.087694724400838 12.964579418312175 3.9695292313893633 12.966666345361574 2.816666603088379 L 12.966666345361574 2.3966665267944336 C 12.270615269154263 2.054125746091207 11.52277817089632 1.8288735349973042 10.753333357143125 1.7299998601277669 L 10.753333357143125 0.8899999459584553 C 10.753333357143125 0.6539572676022847 10.65956530293738 0.42758240302403766 10.492657943529801 0.26067503293355304 C 10.325750584122222 0.09376766284306842 10.09937478035884 0 9.863332117110579 0 C 9.627289453862318 0 9.400914921664608 0.09376766284306842 9.234007562257029 0.26067503293355304 C 9.06710020284945 0.42758240302403766 8.973332784426542 0.6539572676022847 8.973332784426542 0.8899999459584553 L 8.973332784426542 1.7633333206176758 C 7.250477485711475 2.006368855635325 5.673715625648832 2.8644958337148028 4.534146972365195 4.179288546244303 C 3.394578319081559 5.494081258773803 2.7691518459690925 7.176758766174316 2.773333054100909 8.916666666666666 L 2.773333054100909 12.21000035603841 C 2.6898364292533072 13.328152100245157 2.383851653744324 14.418365081151325 1.8733333342293923 15.416666666666666 C 1.4139213849124324 16.138232707977295 0.8601297781688346 16.795159816741943 0.226666753884123 17.37000020345052 L 0 17.56999969482422 L 0 19.450000762939453 L 19.86666488647461 19.450000762939453 L 19.86666488647461 17.56999969482422 Z" fill="rgb(255,255,255)"/>
        </svg>